<svg xmlns="http://www.w3.org/2000/svg" width="50" height="50" viewBox="0 0 81.14 79.17"><defs><style>.cls-1{fill:#00876e}</style></defs><title>btn-primary-bg</title><g id="Calque_2" data-name="Calque 2"><path class="cls-1" d="M63.16 2.71a19.33 19.33 0 0 1 9.24 5.71 8.28 8.28 0 0 1 1.9 3.67c.43 1.57 1.72 2.69 2.77 4.11a20.5 20.5 0 0 1 3.1 7 34.12 34.12 0 0 1 .22 15.15c-.83 4.48-1.27 8.87-3.47 13a41.82 41.82 0 0 0-1.66 4.48A40.51 40.51 0 0 1 64.42 71a34.3 34.3 0 0 1-19.88 8.05c-6.89.45-14.27-1.06-21.13-2.41-6.41-1.22-10.53-5.4-13.95-9.4C5 62 1.64 55.06.91 49.19.13 42.88-.49 36.66.55 30.5c1-6 3.9-10.77 8.24-15.67A45.23 45.23 0 0 1 22.9 4.26C28.33 1.65 34.8.54 41.5.09a49.25 49.25 0 0 1 12.6 1c2.9.51 6.27.78 9.06 1.62z" id="Calque_1-2" data-name="Calque 1"/></g></svg>